<svg xmlns="http://www.w3.org/2000/svg" viewBox="0 0 1200 400" preserveAspectRatio="xMidYMax slice">
  <defs>
    <linearGradient id="sun" cx="50%" cy="50%" r="50%">
    </linearGradient>
    <radialGradient id="sunGlow" cx="50%" cy="50%" r="50%">
      <stop offset="0%" stop-color="#c9a24b" stop-opacity="0.35"/>
      <stop offset="100%" stop-color="#c9a24b" stop-opacity="0"/>
    </radialGradient>
    <linearGradient id="hillBack" x1="0" y1="0" x2="0" y2="1">
      <stop offset="0%" stop-color="#9fc2a8"/>
      <stop offset="100%" stop-color="#82ab8f"/>
    </linearGradient>
    <linearGradient id="hillFront" x1="0" y1="0" x2="0" y2="1">
      <stop offset="0%" stop-color="#4f9563"/>
      <stop offset="100%" stop-color="#2f5d3f"/>
    </linearGradient>
  </defs>

  <circle cx="980" cy="90" r="140" fill="url(#sunGlow)"/>
  <circle cx="980" cy="90" r="46" fill="#c9a24b" opacity="0.55"/>

  <path d="M0,230 C180,190 320,260 520,225 C720,190 860,240 1050,210 C1120,198 1170,205 1200,215 L1200,400 L0,400 Z"
        fill="url(#hillBack)" opacity="0.55"/>

  <g opacity="0.5">
    <g fill="#2f5d3f">
      <rect x="150" y="205" width="3" height="22"/>
      <rect x="168" y="200" width="3" height="27"/>
      <rect x="186" y="208" width="3" height="19"/>
      <rect x="640" y="198" width="3" height="24"/>
      <rect x="658" y="204" width="3" height="18"/>
      <rect x="676" y="196" width="3" height="26"/>
    </g>
  </g>

  <path d="M0,270 C220,235 380,300 600,265 C820,230 940,280 1120,255 C1160,249 1185,252 1200,256 L1200,400 L0,400 Z"
        fill="url(#hillFront)"/>

  <g opacity="0.75" fill="#c9a24b">
    <rect x="90" y="248" width="4" height="26" rx="2"/>
    <rect x="105" y="240" width="4" height="34" rx="2"/>
    <rect x="120" y="252" width="4" height="22" rx="2"/>
    <rect x="960" y="252" width="4" height="24" rx="2"/>
    <rect x="975" y="244" width="4" height="32" rx="2"/>
    <rect x="990" y="256" width="4" height="20" rx="2"/>
    <rect x="1080" y="248" width="4" height="26" rx="2"/>
    <rect x="1095" y="240" width="4" height="34" rx="2"/>
  </g>

  <g transform="translate(560, 250)">
    <rect x="-8" y="78" width="16" height="26" rx="2" fill="#1b3a2b"/>
    <rect x="-95" y="96" width="190" height="10" rx="4" fill="#1b3a2b"/>
    <rect x="-78" y="-6" width="156" height="102" rx="8" fill="#1b3a2b"/>
    <rect x="-66" y="6" width="132" height="78" rx="3" fill="#faf7f0"/>
    <rect x="-66" y="6" width="132" height="78" rx="3" fill="#4f9563" opacity="0.28"/>
    <path d="M-40,58 L-16,34 L4,50 L40,18" stroke="#2f5d3f" stroke-width="4" fill="none" stroke-linecap="round" stroke-linejoin="round" opacity="0.6"/>
  </g>

  <g transform="translate(700, 300)" opacity="0.95">
    <ellipse cx="24" cy="6" rx="34" ry="13" fill="#b48f3e"/>
    <rect x="-10" y="6" width="68" height="32" rx="16" fill="#c9a24b"/>
    <ellipse cx="24" cy="38" rx="34" ry="10" fill="#a97f34" opacity="0.7"/>
    <path d="M-8,16 Q24,26 56,16" stroke="#a97f34" stroke-width="2" fill="none" opacity="0.55"/>
    <path d="M-9,26 Q24,36 57,26" stroke="#a97f34" stroke-width="2" fill="none" opacity="0.55"/>
  </g>
</svg>
